<?xml version="1.0" encoding="UTF-8"?> <svg xmlns="http://www.w3.org/2000/svg" width="103.937" height="40.382" viewBox="0 0 103.937 40.382"><g id="Group_18" data-name="Group 18" transform="translate(-3.5 773.882)"><g id="Group_9" data-name="Group 9" transform="translate(5 -771)"><path id="Path_6" data-name="Path 6" d="M55.938,503.363l3.834.559v9.245c-.07,2.4,1.4,3.384,3.864,3.464s3.683-1,3.6-3.594V504.86l3.8.359v7.627c0,5.8-3.8,6.469-7.437,6.469-5.2.12-7.7-2.067-7.667-6.439Z" transform="translate(-43.618 -488.887)" fill="#120e0d" stroke="#fff" stroke-miterlimit="10" stroke-width="3" fill-rule="evenodd"></path><path id="Path_7" data-name="Path 7" d="M92.985,507.589l4.173.289,3.714,9.195,3.464-8.865,3.894.06-5.451,12.938H98.706Z" transform="translate(-62.376 -491.027)" fill="#120e0d" stroke="#fff" stroke-miterlimit="10" stroke-width="3" fill-rule="evenodd"></path><rect id="Rectangle_3" data-name="Rectangle 3" width="3.844" height="12.889" transform="translate(49.048 17.311)" fill="#120e0d" stroke="#fff" stroke-miterlimit="10" stroke-width="3"></rect><path id="Path_8" data-name="Path 8" d="M160.6,507.63l-3.5.25.01,8.047-5.631-7.8-5.91.18v12.908h3.574l-.02-10.483,7.657,10.483H160.6Z" transform="translate(-88.997 -491.047)" fill="#120e0d" stroke="#fff" stroke-miterlimit="10" stroke-width="3" fill-rule="evenodd"></path><path id="Path_9" data-name="Path 9" d="M192.316,504.819l-5.271.629-6.6,14.356h3.993L186,516.14h7.587l1.687,3.664h4.153l-7.148-14.975Zm-2.526,2.646,2.646,5.99-5.281.03Z" transform="translate(-106.659 -489.624)" fill="#120e0d" stroke="#fff" stroke-miterlimit="10" stroke-width="3" fill-rule="evenodd"></path><path id="Path_10" data-name="Path 10" d="M39.121,474.041l-8.136,5.7v30.3h90.838l6.629-4.4H39.121Z" transform="translate(-30.984 -474.041)" fill="#b12128" stroke="#fff" stroke-miterlimit="10" stroke-width="3" fill-rule="evenodd"></path></g><g id="Group_13" data-name="Group 13" transform="translate(5 -771)"><path id="Path_6-2" data-name="Path 6" d="M55.938,503.363l3.834.559v9.245c-.07,2.4,1.4,3.384,3.864,3.464s3.683-1,3.6-3.594V504.86l3.8.359v7.627c0,5.8-3.8,6.469-7.437,6.469-5.2.12-7.7-2.067-7.667-6.439Z" transform="translate(-43.618 -488.887)" fill="#120e0d" fill-rule="evenodd"></path><path id="Path_7-2" data-name="Path 7" d="M92.985,507.589l4.173.289,3.714,9.195,3.464-8.865,3.894.06-5.451,12.938H98.706Z" transform="translate(-62.376 -491.027)" fill="#120e0d" fill-rule="evenodd"></path><rect id="Rectangle_3-2" data-name="Rectangle 3" width="3.844" height="12.889" transform="translate(49.048 17.311)" fill="#120e0d"></rect><path id="Path_8-2" data-name="Path 8" d="M160.6,507.63l-3.5.25.01,8.047-5.631-7.8-5.91.18v12.908h3.574l-.02-10.483,7.657,10.483H160.6Z" transform="translate(-88.997 -491.047)" fill="#120e0d" fill-rule="evenodd"></path><path id="Path_9-2" data-name="Path 9" d="M192.316,504.819l-5.271.629-6.6,14.356h3.993L186,516.14h7.587l1.687,3.664h4.153l-7.148-14.975Zm-2.526,2.646,2.646,5.99-5.281.03Z" transform="translate(-106.659 -489.624)" fill="#120e0d" fill-rule="evenodd"></path><path id="Path_10-2" data-name="Path 10" d="M39.121,474.041l-8.136,5.7v30.3h90.838l6.629-4.4H39.121Z" transform="translate(-30.984 -474.041)" fill="#b12128" fill-rule="evenodd"></path></g></g></svg> 